<svg width="32" height="37" viewBox="0 0 32 37" fill="none" xmlns="http://www.w3.org/2000/svg">
<path d="M28.497 19.7292L17.167 31.0775C15.6816 32.3976 13.7481 33.1002 11.7618 33.0417C9.77552 32.9833 7.88664 32.1681 6.48153 30.763C5.07641 29.3579 4.26124 27.469 4.20277 25.4827C4.1443 23.4964 4.84695 21.5629 6.16698 20.0775L20.8336 5.41087C21.7093 4.57908 22.8709 4.11531 24.0786 4.11531C25.2864 4.11531 26.448 4.57908 27.3236 5.41087C28.1768 6.27545 28.6551 7.44123 28.6551 8.65587C28.6551 9.87051 28.1768 11.0363 27.3236 11.9009L14.6736 24.5325C14.5484 24.6674 14.3979 24.7762 14.2307 24.8529C14.0634 24.9295 13.8827 24.9725 13.6988 24.9793C13.515 24.9861 13.3316 24.9566 13.1591 24.8925C12.9866 24.8285 12.8285 24.7311 12.6936 24.6059C12.5588 24.4807 12.45 24.3301 12.3733 24.1629C12.2967 23.9956 12.2537 23.8149 12.2469 23.6311C12.2401 23.4472 12.2696 23.2638 12.3336 23.0913C12.3977 22.9189 12.4951 22.7607 12.6203 22.6259L22.0253 13.2392C22.3705 12.894 22.5645 12.4258 22.5645 11.9375C22.5645 11.4493 22.3705 10.9811 22.0253 10.6359C21.6801 10.2906 21.2119 10.0967 20.7236 10.0967C20.2354 10.0967 19.7672 10.2906 19.422 10.6359L10.017 20.0592C9.54637 20.5262 9.17285 21.0817 8.91795 21.6937C8.66305 22.3057 8.53182 22.9621 8.53182 23.625C8.53182 24.288 8.66305 24.9444 8.91795 25.5564C9.17285 26.1684 9.54637 26.7239 10.017 27.1909C10.9783 28.1066 12.2551 28.6174 13.5828 28.6174C14.9105 28.6174 16.1873 28.1066 17.1486 27.1909L29.7803 14.5409C31.2376 12.9769 32.0309 10.9084 31.9932 8.77112C31.9555 6.63381 31.0897 4.59457 29.5782 3.08303C28.0666 1.57148 26.0274 0.705652 23.8901 0.667942C21.7527 0.630231 19.6842 1.42359 18.1203 2.88087L3.45364 17.5475C1.47584 19.7381 0.419528 22.6073 0.504787 25.5573C0.590047 28.5074 1.8103 31.3108 3.91131 33.3834C6.01233 35.4561 8.83205 36.6381 11.783 36.6833C14.7339 36.7285 17.5885 35.6333 19.752 33.6259L31.1003 22.2959C31.2712 22.1249 31.4068 21.922 31.4994 21.6987C31.5919 21.4753 31.6395 21.2359 31.6395 20.9942C31.6395 20.7525 31.5919 20.5131 31.4994 20.2897C31.4068 20.0664 31.2712 19.8635 31.1003 19.6925C30.9294 19.5216 30.7264 19.386 30.5031 19.2935C30.2798 19.201 30.0404 19.1534 29.7986 19.1534C29.5569 19.1534 29.3175 19.201 29.0942 19.2935C28.8708 19.386 28.6679 19.5216 28.497 19.6925V19.7292Z" fill="#999999"/>
</svg>
