<svg width="30" height="30" viewBox="0 0 30 30" fill="none" xmlns="http://www.w3.org/2000/svg">
<path d="M1.55074 0.113175C1.37138 0.0234671 1.17044 -0.0141023 0.970785 0.00474051C0.771128 0.0235833 0.580766 0.098082 0.421354 0.219762C0.261942 0.341442 0.139879 0.505419 0.0690502 0.69304C-0.00177834 0.880661 -0.0185294 1.08439 0.0207025 1.28106L3.02721 11.6742C3.08327 11.8679 3.19284 12.0418 3.34334 12.176C3.49383 12.3102 3.67913 12.3992 3.87795 12.4328L16.0711 14.475C16.6454 14.5886 16.6454 15.4114 16.0711 15.525L3.87795 17.5672C3.67913 17.6008 3.49383 17.6898 3.34334 17.824C3.19284 17.9582 3.08327 18.1321 3.02721 18.3258L0.0207025 28.7189C-0.0185294 28.9156 -0.00177834 29.1193 0.0690502 29.307C0.139879 29.4946 0.261942 29.6586 0.421354 29.7802C0.580766 29.9019 0.771128 29.9764 0.970785 29.9953C1.17044 30.0141 1.37138 29.9765 1.55074 29.8868L29.4086 15.9579C29.5864 15.8688 29.7358 15.732 29.8402 15.5629C29.9447 15.3937 30 15.1988 30 15C30 14.8012 29.9447 14.6063 29.8402 14.4371C29.7358 14.268 29.5864 14.1312 29.4086 14.0421L1.55074 0.113175Z" fill="white"/>
</svg>
